<svg width="256" height="256" version="1.1" viewBox="0 0 512 512" xmlns="http://www.w3.org/2000/svg">
    <g fill-rule="evenodd" stroke-width="16">
        <path d="m341.33 0a170.67 170.67 0 0 0-85.484 23.508 170.67 170.67 0 0 1 63.873 64.883 85.333 85.333 0 0 1 21.613-3.0566 85.333 85.333 0 0 1 85.334 85.332 85.333 85.333 0 0 1-85.334 85.334 85.333 85.333 0 0 1-85.334-85.334 85.333 85.333 0 0 0-63.781-82.295 170.67 170.67 0 0 0-21.553 82.295v256c47.129 3.6e-4 85.334-38.205 85.334-85.334v-23.305a170.67 170.67 0 0 0 85.332 23.307 170.67 170.67 0 0 0 170.67-170.67 170.67 170.67 0 0 0-170.67-170.67zm-85.332 489.12c-25.101 14.539-54.238 22.875-85.334 22.875h85.334z" fill="#ffc03e" stop-color="#000000" style="-inkscape-stroke:none;font-variation-settings:normal"/>
        <path d="m170.67 0a170.67 170.67 0 0 0-170.67 170.67 170.67 170.67 0 0 0 170.67 170.67 170.67 170.67 0 0 0 85.334-22.918v22.916c3e-4 47.129-38.205 85.334-85.334 85.334-47.128-7.1e-4 -85.332-38.206-85.332-85.334h-85.334c-7e-4 94.257 76.409 170.67 170.67 170.67 94.258 7.1e-4 170.67-76.41 170.67-170.67v-170.67a170.67 170.67 0 0 0-170.67-170.67zm0 85.334a85.333 85.333 0 0 1 85.334 85.332 85.333 85.333 0 0 1-85.334 85.334 85.333 85.333 0 0 1-85.332-85.334 85.333 85.333 0 0 1 85.332-85.332z" fill="#800020" stop-color="#000000" style="-inkscape-stroke:none;font-variation-settings:normal"/>
        <path d="m170.67 402.03 85.334-84v193.97h-85.334z" fill="#ffc03e" stop-color="#000000" style="-inkscape-stroke:none;font-variation-settings:normal"/>
        <path d="m341.34 3e-6c-94.256-1.88e-4 -170.67 76.41-170.67 170.67h85.332c7e-4 -47.128 38.206-85.332 85.334-85.332z" fill="#ffc03e" stop-color="#000000" style="-inkscape-stroke:none;font-variation-settings:normal"/>
    </g>
</svg>
